<svg width="48" height="47" viewBox="0 0 48 47" fill="none" xmlns="http://www.w3.org/2000/svg">
<path d="M46.6507 29.1334L40.8637 39.3395C39.7294 41.3666 37.6229 42.4273 35.4933 42.2859H30.8637V47L25.0766 36.3932L30.8637 25.7864V30.5005H37.3915L32.2526 21.4258L42.2757 15.5331L46.4424 22.8872C47.6461 24.7021 47.8081 27.1299 46.6507 29.1334ZM17.4609 0H29.035C31.3035 0 33.2711 1.34353 34.2202 3.27633L36.535 7.37763L40.5396 5.02056L34.4285 15.4152L22.5072 15.6274L26.5118 13.2703L23.2479 7.49549L18.1322 16.5702L8.0859 10.6775L12.2526 3.32347C13.2016 1.3671 15.1692 0 17.4609 0ZM7.83127 39.3631L2.04423 29.157C0.909966 27.1535 1.072 24.7492 2.25256 22.9343L4.56738 18.8566L0.562744 16.4995L12.4609 16.6881L18.5952 27.1063L14.5905 24.7492L11.3266 30.5005H21.6044V42.2859H13.2711C11.1183 42.4509 8.98868 41.3666 7.83127 39.3631Z" fill="#028C31"/>
</svg>
