
      <svg
        width="101"
        height="100"
        viewBox="0 0 101 100"
        fill="none"
        xmlns="http://www.w3.org/2000/svg"
      >
        <path
          d="M51.4204 3.78126L92.0617 24.7891C92.95 25.3125 93.2071 26.0938 93.1993 27.2266L93.1214 28.6406L50.2127 50.7031L7.40525 28.9922C7.40525 28.9922 7.35851 28.7734 7.35851 28.0078C7.35851 28.0078 7.39746 27 7.62341 26.5313C7.87275 26 8.40259 25.5234 8.74541 25.2344C9.65704 24.4766 10.5687 23.8047 12.1192 22.9297C34.3488 10.3281 48.966 3.83595 48.966 3.83595C49.9088 3.48438 50.688 3.35938 51.4204 3.78126Z"
          fill="#DEA66C"
        />
        <path
          d="M92.5603 75.125C90.1917 76.6953 85.8673 78.7578 81.4962 81.1328C71.3358 86.6484 58.4952 93.3515 52.106 95.9843C51.2411 96.3437 50.7269 96.5156 50.1269 96.5469C49.6828 96.5703 48.9504 96.2734 48.9504 96.2734C48.9504 96.2734 50.1425 53.1562 50.2126 50.6953C50.2827 48.289 51.2879 47.4922 52.1761 46.914C53.563 46.0234 56.5706 44.6328 56.5706 44.6328C56.5706 44.6328 67.1049 39.3828 77.6237 33.8515C82.6259 31.2187 86.849 28.5234 91.3916 26.3047C92.2253 25.9062 93.207 26.4062 93.207 27.3437V74.0625C93.207 74.5078 92.9343 74.8828 92.5603 75.125Z"
          fill="#B38251"
        />
        <path
          d="M8.53502 75.3985L48.8647 96.25C49.5114 96.586 50.2828 96.1172 50.2828 95.3828L50.2126 50.711C50.2126 50.2813 50.3451 49.336 50.4776 48.961C50.8438 47.8672 50.049 47.4297 49.6906 47.25L9.68818 26.5938C8.62852 26.0469 7.35848 26.8203 7.35848 28.0156V73.4766C7.35848 74.2813 7.81039 75.0235 8.53502 75.3985Z"
          fill="#966239"
        />
        <path
          opacity="0.5"
          d="M26.5493 37.1797C26.5493 37.1797 48.6543 48.5156 49.0127 49.4765C49.3711 50.4297 31.6684 41.8984 29.5959 40.8281C27.2506 39.6172 8.83107 29.7422 8.83107 28.6562C8.82328 27.7656 26.5493 37.1797 26.5493 37.1797Z"
          fill="#212121"
        />
        <path
          d="M21.6562 32.4141C22.0457 32.125 63.8792 10.2109 63.8792 10.2109L76.8601 16.9375L33.967 39.1172L33.9436 39.1406L21.3912 32.6953C21.3912 32.6953 21.4146 32.6328 21.4847 32.5547C21.5393 32.5078 21.6328 32.4375 21.6562 32.4141Z"
          fill="#FFE0B2"
        />
        <path
          d="M21.4537 32.6016C28.5597 36.1094 33.9671 39.1172 33.9671 39.1172C33.7879 39.2969 33.7801 39.5313 33.7801 39.6484C33.8035 40.5547 33.8191 41.2734 33.8424 42.1719C33.9515 46.8203 34.0138 51.4766 34.1697 56.125C33.6476 55.8125 33.0165 56.5 32.5412 56.125C31.8088 55.5469 30.2505 53 30.0167 52.9219C29.7051 52.8203 29.37 52.8984 29.0506 52.8828C27.6481 52.8047 24.508 49.9375 23.8379 49.8047C23.1912 49.6797 21.0563 50.0938 21.0563 50.0938C21.0563 50.0938 21.2043 35.9141 21.2589 33.5312C21.2745 32.6875 21.4537 32.6016 21.4537 32.6016Z"
          fill="#BF9F85"
        />
      </svg>

